<svg width="20" height="20" viewBox="0 0 20 20" fill="none" xmlns="http://www.w3.org/2000/svg">
<path d="M1.22656 9.94398C1.22656 14.8641 5.21482 18.8523 10.1349 18.8523C15.055 18.8523 19.0432 14.8641 19.0432 9.94398C19.0432 5.02391 15.055 1.03564 10.1349 1.03564C5.21482 1.03564 1.22656 5.02391 1.22656 9.94398Z" stroke="#20B25D" stroke-width="1.33625" stroke-linecap="round" stroke-linejoin="round"/>
<path d="M11.029 1.08252C11.029 1.08252 13.7015 4.60131 13.7015 9.94631C13.7015 15.2913 11.029 18.8101 11.029 18.8101M9.24729 18.8101C9.24729 18.8101 6.57479 15.2913 6.57479 9.94631C6.57479 4.60131 9.24729 1.08252 9.24729 1.08252M1.79102 13.0642H18.4852M1.79102 6.82839H18.4852" stroke="#20B25D" stroke-width="1.33625" stroke-linecap="round" stroke-linejoin="round"/>
</svg>
