<svg width="22" height="23" viewBox="0 0 22 23" fill="none" xmlns="http://www.w3.org/2000/svg">
<path d="M16.4816 10.4839V14.0472C16.4816 14.2788 16.4727 14.5016 16.446 14.7154C16.2411 17.1206 14.8247 18.3143 12.2145 18.3143H11.8582C11.6355 18.3143 11.4217 18.4212 11.288 18.5994L10.2191 20.0247C9.74692 20.6572 8.98079 20.6572 8.50865 20.0247L7.43964 18.5994C7.32383 18.4479 7.0655 18.3143 6.86952 18.3143H6.51319C3.67143 18.3143 2.24609 17.6106 2.24609 14.0472V10.4839C2.24609 7.87375 3.44873 6.45733 5.84507 6.25244C6.05887 6.22571 6.28158 6.2168 6.51319 6.2168H12.2145C15.0563 6.2168 16.4816 7.64214 16.4816 10.4839Z" stroke="#20B25D" stroke-width="1.33625" stroke-miterlimit="10" stroke-linecap="round" stroke-linejoin="round"/>
<path d="M20.0436 6.92042V10.4838C20.0436 13.1028 18.841 14.5103 16.4447 14.7152C16.4714 14.5014 16.4803 14.2787 16.4803 14.0471V10.4838C16.4803 7.64199 15.055 6.21665 12.2132 6.21665H6.51187C6.28026 6.21665 6.05755 6.22557 5.84375 6.25229C6.04864 3.85595 7.46507 2.65332 10.0752 2.65332H15.7765C18.6183 2.65332 20.0436 4.07866 20.0436 6.92042Z" stroke="#20B25D" stroke-width="1.33625" stroke-miterlimit="10" stroke-linecap="round" stroke-linejoin="round"/>
<path d="M12.4863 12.6749H12.4943" stroke="#20B25D" stroke-width="1.78167" stroke-linecap="round" stroke-linejoin="round"/>
<path d="M9.36914 12.6749H9.37716" stroke="#20B25D" stroke-width="1.78167" stroke-linecap="round" stroke-linejoin="round"/>
<path d="M6.25195 12.6749H6.25997" stroke="#20B25D" stroke-width="1.78167" stroke-linecap="round" stroke-linejoin="round"/>
</svg>
