<svg width="43" height="42" viewBox="0 0 43 42" fill="none" xmlns="http://www.w3.org/2000/svg">
<circle cx="21.7422" cy="20.9927" r="21" fill="white" fill-opacity="0.23"/>
<g clip-path="url(#clip0_221_3475)">
<path fill-rule="evenodd" clip-rule="evenodd" d="M9.74219 14.6177C9.74219 14.3193 9.86071 14.0332 10.0717 13.8222C10.2827 13.6112 10.5688 13.4927 10.8672 13.4927H32.6172C32.9156 13.4927 33.2017 13.6112 33.4127 13.8222C33.6237 14.0332 33.7422 14.3193 33.7422 14.6177C33.7422 14.916 33.6237 15.2022 33.4127 15.4132C33.2017 15.6241 32.9156 15.7427 32.6172 15.7427H10.8672C10.5688 15.7427 10.2827 15.6241 10.0717 15.4132C9.86071 15.2022 9.74219 14.916 9.74219 14.6177ZM9.74219 20.9927C9.74219 20.6943 9.86071 20.4082 10.0717 20.1972C10.2827 19.9862 10.5688 19.8677 10.8672 19.8677H32.6172C32.9156 19.8677 33.2017 19.9862 33.4127 20.1972C33.6237 20.4082 33.7422 20.6943 33.7422 20.9927C33.7422 21.291 33.6237 21.5772 33.4127 21.7882C33.2017 21.9991 32.9156 22.1177 32.6172 22.1177H10.8672C10.5688 22.1177 10.2827 21.9991 10.0717 21.7882C9.86071 21.5772 9.74219 21.291 9.74219 20.9927ZM10.8672 26.2427C10.5688 26.2427 10.2827 26.3612 10.0717 26.5722C9.86071 26.7832 9.74219 27.0693 9.74219 27.3677C9.74219 27.666 9.86071 27.9522 10.0717 28.1632C10.2827 28.3741 10.5688 28.4927 10.8672 28.4927H32.6172C32.9156 28.4927 33.2017 28.3741 33.4127 28.1632C33.6237 27.9522 33.7422 27.666 33.7422 27.3677C33.7422 27.0693 33.6237 26.7832 33.4127 26.5722C33.2017 26.3612 32.9156 26.2427 32.6172 26.2427H10.8672Z" fill="white"/>
</g>
<defs>
<clipPath id="clip0_221_3475">
<rect width="24" height="24" fill="white" transform="translate(9.74219 8.99268)"/>
</clipPath>
</defs>
</svg>
