<svg width="23" height="23" viewBox="0 0 23 23" fill="none" xmlns="http://www.w3.org/2000/svg">
<path d="M17.2612 18.27H13.6973" stroke="#20B25D" stroke-width="1.33646" stroke-linecap="round" stroke-linejoin="round"/>
<path d="M15.4785 20.0522V16.4883" stroke="#20B25D" stroke-width="1.33646" stroke-linecap="round" stroke-linejoin="round"/>
<path d="M11.6122 10.5812C11.5231 10.5723 11.4162 10.5723 11.3182 10.5812C9.19765 10.5099 7.51371 8.77249 7.51371 6.63415C7.5048 4.45126 9.27783 2.67822 11.4607 2.67822C13.6436 2.67822 15.4166 4.45126 15.4166 6.63415C15.4166 8.77249 13.7238 10.5099 11.6122 10.5812Z" stroke="#20B25D" stroke-width="1.33646" stroke-linecap="round" stroke-linejoin="round"/>
<path d="M11.4598 20.3283C9.83823 20.3283 8.22557 19.9184 6.99602 19.0987C4.83987 17.6553 4.83987 15.3032 6.99602 13.8687C9.4462 12.2293 13.4645 12.2293 15.9147 13.8687" stroke="#20B25D" stroke-width="1.33646" stroke-linecap="round" stroke-linejoin="round"/>
</svg>
