<svg width="22" height="22" viewBox="0 0 22 22" fill="none" xmlns="http://www.w3.org/2000/svg">
<path d="M19.6819 5.95689V8.1127C19.6819 9.52022 18.7911 10.4111 17.3835 10.4111H14.3369V4.18413C14.3369 3.1953 15.1476 2.39355 16.1364 2.39355C17.1074 2.40246 17.9983 2.79443 18.6397 3.43583C19.2811 4.08614 19.6819 4.97697 19.6819 5.95689Z" stroke="#20B25D" stroke-width="1.33625" stroke-miterlimit="10" stroke-linecap="round" stroke-linejoin="round"/>
<path d="M1.86523 6.84772V19.3194C1.86523 20.0588 2.7026 20.4775 3.29055 20.0321L4.81389 18.8918C5.17022 18.6245 5.6691 18.6602 5.9898 18.9809L7.46856 20.4686C7.81598 20.816 8.38615 20.816 8.73358 20.4686L10.2302 18.972C10.542 18.6602 11.0408 18.6245 11.3882 18.8918L12.9116 20.0321C13.4995 20.4686 14.3369 20.0499 14.3369 19.3194V4.17522C14.3369 3.1953 15.1387 2.39355 16.1186 2.39355H6.3194H5.42857C2.75607 2.39355 1.86523 3.98815 1.86523 5.95689V6.84772Z" stroke="#20B25D" stroke-width="1.33625" stroke-miterlimit="10" stroke-linecap="round" stroke-linejoin="round"/>
<path d="M5.42871 8.62988H10.7737" stroke="#20B25D" stroke-width="1.33625" stroke-linecap="round" stroke-linejoin="round"/>
<path d="M6.09668 12.1934H10.1054" stroke="#20B25D" stroke-width="1.33625" stroke-linecap="round" stroke-linejoin="round"/>
</svg>
