<svg width="22" height="22" viewBox="0 0 22 22" fill="none" xmlns="http://www.w3.org/2000/svg">
<path d="M12.6692 3.1726L14.2371 6.30834C14.4509 6.74485 15.021 7.16354 15.5021 7.24371L18.3438 7.71585C20.1611 8.01874 20.5887 9.33717 19.2792 10.6378L17.0699 12.8471C16.6958 13.2212 16.4909 13.9428 16.6067 14.4595L17.2392 17.1943C17.7381 19.359 16.5889 20.1964 14.6736 19.0651L12.01 17.4883C11.529 17.2032 10.7361 17.2032 10.2462 17.4883L7.58257 19.0651C5.67619 20.1964 4.5181 19.3501 5.01697 17.1943L5.64946 14.4595C5.76527 13.9428 5.56038 13.2212 5.18623 12.8471L2.97696 10.6378C1.67634 9.33717 2.09504 8.01874 3.91234 7.71585L6.75409 7.24371C7.22624 7.16354 7.79637 6.74485 8.01017 6.30834L9.57804 3.1726C10.4332 1.47111 11.8229 1.47111 12.6692 3.1726Z" stroke="#20B25D" stroke-width="1.33625" stroke-linecap="round" stroke-linejoin="round"/>
</svg>
