<svg width="19" height="17" viewBox="0 0 19 17" fill="none" xmlns="http://www.w3.org/2000/svg">
<path d="M17.7783 8.08232L10.6516 0.955649C10.5271 0.831102 10.3683 0.746289 10.1956 0.711931C10.0228 0.677574 9.8437 0.695215 9.68094 0.762625C9.51819 0.830034 9.37907 0.944185 9.28118 1.09065C9.18329 1.23711 9.13103 1.40931 9.13099 1.58547V4.74347C6.69749 4.96867 4.43561 6.09385 2.78798 7.89883C1.14035 9.70381 0.225571 12.0587 0.222656 14.5026V15.8388C0.222797 16.0237 0.28048 16.204 0.387705 16.3547C0.494929 16.5053 0.646381 16.6189 0.821052 16.6796C0.995723 16.7403 1.18496 16.7451 1.3625 16.6934C1.54005 16.6418 1.69711 16.5361 1.8119 16.3911C2.68478 15.3534 3.75565 14.5 4.96198 13.8807C6.16831 13.2614 7.48593 12.8886 8.83791 12.7841C8.88245 12.7788 8.9938 12.7699 9.13099 12.761V15.8388C9.13103 16.015 9.18329 16.1872 9.28118 16.3336C9.37907 16.4801 9.51819 16.5942 9.68094 16.6616C9.8437 16.7291 10.0228 16.7467 10.1956 16.7123C10.3683 16.678 10.5271 16.5932 10.6516 16.4686L17.7783 9.34195C17.9453 9.1749 18.0391 8.94835 18.0391 8.71214C18.0391 8.47592 17.9453 8.24937 17.7783 8.08232ZM10.9127 13.6883V11.8301C10.9127 11.5938 10.8188 11.3672 10.6517 11.2001C10.4847 11.0331 10.2581 10.9392 10.0218 10.9392C9.79466 10.9392 8.8673 10.9838 8.63034 11.0149C6.22936 11.2359 3.94391 12.1481 2.05065 13.6411C2.26555 11.6763 3.19763 9.85984 4.66841 8.53945C6.13919 7.21907 8.04531 6.48759 10.0218 6.48505C10.2581 6.48505 10.4847 6.3912 10.6517 6.22413C10.8188 6.05707 10.9127 5.83048 10.9127 5.59422V3.73594L15.8889 8.71214L10.9127 13.6883Z" fill="#20B25D"/>
</svg>
