<svg width="23" height="23" viewBox="0 0 23 23" fill="none" xmlns="http://www.w3.org/2000/svg">
<path d="M16.8555 12.9674C16.4813 13.3327 16.2675 13.8584 16.3209 14.4197C16.4011 15.382 17.2832 16.0859 18.2454 16.0859H19.9383V17.1461C19.9383 18.9904 18.4325 20.4962 16.5882 20.4962H6.35983C4.51551 20.4962 3.00977 18.9904 3.00977 17.1461V11.1499C3.00977 9.30556 4.51551 7.7998 6.35983 7.7998H16.5882C18.4325 7.7998 19.9383 9.30556 19.9383 11.1499V12.4329H18.1385C17.6396 12.4329 17.1852 12.6289 16.8555 12.9674Z" stroke="#20B25D" stroke-width="1.33646" stroke-linecap="round" stroke-linejoin="round"/>
<path d="M3.00977 11.9512V7.8795C3.00977 6.81924 3.66018 5.87477 4.64916 5.50056L11.7235 2.82764C12.8283 2.40888 14.0133 3.2286 14.0133 4.4136V7.79929" stroke="#20B25D" stroke-width="1.33646" stroke-linecap="round" stroke-linejoin="round"/>
<path d="M20.8824 13.3414V15.1768C20.8824 15.6669 20.4904 16.0678 19.9914 16.0856H18.2451C17.2829 16.0856 16.4008 15.3817 16.3206 14.4195C16.2672 13.8582 16.481 13.3325 16.8552 12.9672C17.1849 12.6286 17.6393 12.4326 18.1382 12.4326H19.9914C20.4904 12.4504 20.8824 12.8513 20.8824 13.3414Z" stroke="#20B25D" stroke-width="1.33646" stroke-linecap="round" stroke-linejoin="round"/>
<path d="M7.01953 11.5864H13.2564" stroke="#20B25D" stroke-width="1.33646" stroke-linecap="round" stroke-linejoin="round"/>
</svg>
