<svg width="45" height="44" viewBox="0 0 45 44" fill="none" xmlns="http://www.w3.org/2000/svg">
<circle cx="22.8496" cy="21.9941" r="21.5" stroke="#B6B6B6" stroke-opacity="0.23"/>
<path d="M23.4408 20.704C23.3408 20.694 23.2208 20.694 23.1108 20.704C20.7308 20.624 18.8408 18.674 18.8408 16.274C18.8408 13.824 20.8208 11.834 23.2808 11.834C25.7308 11.834 27.7208 13.824 27.7208 16.274C27.7108 18.674 25.8208 20.624 23.4408 20.704Z" stroke="white" stroke-width="1.5" stroke-linecap="round" stroke-linejoin="round"/>
<path d="M18.441 24.394C16.021 26.014 16.021 28.654 18.441 30.264C21.191 32.104 25.701 32.104 28.451 30.264C30.871 28.644 30.871 26.004 28.451 24.394C25.711 22.564 21.201 22.564 18.441 24.394Z" stroke="white" stroke-width="1.5" stroke-linecap="round" stroke-linejoin="round"/>
</svg>
