<svg width="45" height="44" viewBox="0 0 45 44" fill="none" xmlns="http://www.w3.org/2000/svg">
<circle cx="22.8496" cy="21.9941" r="21.5" stroke="#B6B6B6" stroke-opacity="0.23"/>
<path d="M29.3213 23.384C28.9013 23.794 28.6613 24.384 28.7213 25.014C28.8113 26.094 29.8013 26.884 30.8813 26.884H32.7812V28.074C32.7812 30.144 31.0912 31.834 29.0212 31.834H17.5413C15.4713 31.834 13.7812 30.144 13.7812 28.074V21.344C13.7812 19.274 15.4713 17.584 17.5413 17.584H29.0212C31.0912 17.584 32.7812 19.274 32.7812 21.344V22.784H30.7612C30.2012 22.784 29.6913 23.004 29.3213 23.384Z" stroke="white" stroke-width="1.5" stroke-linecap="round" stroke-linejoin="round"/>
<path d="M13.7812 22.2438V17.6738C13.7812 16.4838 14.5113 15.4238 15.6213 15.0038L23.5612 12.0038C24.8012 11.5338 26.1313 12.4538 26.1313 13.7838V17.5838" stroke="white" stroke-width="1.5" stroke-linecap="round" stroke-linejoin="round"/>
<path d="M33.8401 23.8041V25.8642C33.8401 26.4142 33.4001 26.8642 32.8401 26.8842H30.8801C29.8001 26.8842 28.8101 26.0942 28.7201 25.0142C28.6601 24.3842 28.9001 23.7942 29.3201 23.3842C29.6901 23.0042 30.2001 22.7842 30.7601 22.7842H32.8401C33.4001 22.8042 33.8401 23.2541 33.8401 23.8041Z" stroke="white" stroke-width="1.5" stroke-linecap="round" stroke-linejoin="round"/>
<path d="M18.2812 21.834H25.2812" stroke="white" stroke-width="1.5" stroke-linecap="round" stroke-linejoin="round"/>
</svg>
